HIERARCHY
ROOT Hips
{
	OFFSET 0.000000 0.000000 0.000000
	CHANNELS 6 Xposition Yposition Zposition Zrotation Yrotation Xrotation 
	JOINT Spine1
	{
		OFFSET -0.013727 5.003761 -0.053727
		CHANNELS 3 Zrotation Yrotation Xrotation
		JOINT Spine2
		{
			OFFSET -0.000000 7.125303 -0.029825
			CHANNELS 3 Zrotation Yrotation Xrotation
			JOINT Chest
			{
				OFFSET -0.000001 7.550064 -0.815971
				CHANNELS 3 Zrotation Yrotation Xrotation
				JOINT Neck1
				{
					OFFSET -0.181676 26.311296 -0.553348
					CHANNELS 3 Zrotation Yrotation Xrotation
					JOINT Neck2
					{
						OFFSET -0.000003 7.709400 2.302585
						CHANNELS 3 Zrotation Yrotation Xrotation
						JOINT Head
						{
							OFFSET -0.000005 6.128913 1.953709
							CHANNELS 3 Zrotation Yrotation Xrotation
							JOINT HeadEnd
							{
								OFFSET 0.003598 16.065401 -1.835379
								CHANNELS 3 Zrotation Yrotation Xrotation
								End Site
								{
									OFFSET 0.000000 0.000000 0.000000
								}
							}
							JOINT Jaw
							{
								OFFSET 0.002637 0.475591 3.094941
								CHANNELS 3 Zrotation Yrotation Xrotation
								End Site
								{
									OFFSET 0.000000 0.000000 0.000000
								}
							}
							JOINT LeftEye
							{
								OFFSET 3.206381 5.380207 7.586883
								CHANNELS 3 Zrotation Yrotation Xrotation
								End Site
								{
									OFFSET 0.000000 0.000000 0.000000
								}
							}
							JOINT RightEye
							{
								OFFSET -3.222440 5.361868 7.558233
								CHANNELS 3 Zrotation Yrotation Xrotation
								End Site
								{
									OFFSET 0.000000 0.000000 0.000000
								}
							}
						}
					}
				}
				JOINT LeftShoulder
				{
					OFFSET 1.621652 23.237164 5.113413
					CHANNELS 3 Zrotation Yrotation Xrotation
					JOINT LeftArm
					{
						OFFSET 14.919845 0.000000 -5.502326
						CHANNELS 3 Zrotation Yrotation Xrotation
						JOINT LeftForeArm
						{
							OFFSET 28.739309 0.000003 -0.002588
							CHANNELS 3 Zrotation Yrotation Xrotation
							JOINT LeftHand
							{
								OFFSET 27.093979 -0.000003 0.002609
								CHANNELS 3 Zrotation Yrotation Xrotation
								JOINT LeftHandThumb1
								{
									OFFSET 2.276480 -1.392045 3.191413
									CHANNELS 3 Zrotation Yrotation Xrotation
									JOINT LeftHandThumb2
									{
										OFFSET 4.012841 -1.828126 1.641656
										CHANNELS 3 Zrotation Yrotation Xrotation
										JOINT LeftHandThumb3
										{
											OFFSET 2.798516 0.000001 -0.000004
											CHANNELS 3 Zrotation Yrotation Xrotation
											JOINT LeftHandThumbEnd
											{
												OFFSET 3.180792 -0.000002 0.000003
												CHANNELS 3 Zrotation Yrotation Xrotation
												End Site
												{
													OFFSET 0.000000 0.000000 0.000000
												}
											}
										}
									}
								}
								JOINT LeftHandIndex1
								{
									OFFSET 3.247553 -0.531998 2.296169
									CHANNELS 3 Zrotation Yrotation Xrotation
									JOINT LeftHandIndex2
									{
										OFFSET 6.364579 0.012062 0.178600
										CHANNELS 3 Zrotation Yrotation Xrotation
										JOINT LeftHandIndex3
										{
											OFFSET 3.662366 0.000001 -0.000000
											CHANNELS 3 Zrotation Yrotation Xrotation
											JOINT LeftHandIndex4
											{
												OFFSET 2.329243 0.000003 0.000004
												CHANNELS 3 Zrotation Yrotation Xrotation
												JOINT LeftHandIndexEnd
												{
													OFFSET 2.759619 -0.180539 -0.113023
													CHANNELS 3 Zrotation Yrotation Xrotation
													End Site
													{
														OFFSET 0.000000 0.000000 0.000000
													}
												}
											}
										}
									}
								}
								JOINT LeftHandMiddle1
								{
									OFFSET 3.163499 0.240982 1.000332
									CHANNELS 3 Zrotation Yrotation Xrotation
									JOINT LeftHandMiddle2
									{
										OFFSET 6.190778 -0.259276 -1.002548
										CHANNELS 3 Zrotation Yrotation Xrotation
										JOINT LeftHandMiddle3
										{
											OFFSET 4.356522 -0.000006 0.000000
											CHANNELS 3 Zrotation Yrotation Xrotation
											JOINT LeftHandMiddle4
											{
												OFFSET 2.996875 -0.000007 0.000001
												CHANNELS 3 Zrotation Yrotation Xrotation
												JOINT LeftHandMiddleEnd
												{
													OFFSET 2.304294 -0.294571 -0.031740
													CHANNELS 3 Zrotation Yrotation Xrotation
													End Site
													{
														OFFSET 0.000000 0.000000 0.000000
													}
												}
											}
										}
									}
								}
								JOINT LeftHandRing1
								{
									OFFSET 2.882641 -0.053650 -0.322543
									CHANNELS 3 Zrotation Yrotation Xrotation
									JOINT LeftHandRing2
									{
										OFFSET 5.854543 -0.486203 -1.373841
										CHANNELS 3 Zrotation Yrotation Xrotation
										JOINT LeftHandRing3
										{
											OFFSET 4.350580 0.000000 0.000004
											CHANNELS 3 Zrotation Yrotation Xrotation
											JOINT LeftHandRing4
											{
												OFFSET 2.651324 0.000008 0.000003
												CHANNELS 3 Zrotation Yrotation Xrotation
												JOINT LeftHandRingEnd
												{
													OFFSET 1.936111 0.077685 -0.000070
													CHANNELS 3 Zrotation Yrotation Xrotation
													End Site
													{
														OFFSET 0.000000 0.000000 0.000000
													}
												}
											}
										}
									}
								}
								JOINT LeftHandPinky1
								{
									OFFSET 2.865499 -0.310004 -1.600378
									CHANNELS 3 Zrotation Yrotation Xrotation
									JOINT LeftHandPinky2
									{
										OFFSET 5.087853 -1.331142 -1.771231
										CHANNELS 3 Zrotation Yrotation Xrotation
										JOINT LeftHandPinky3
										{
											OFFSET 3.070975 0.000003 0.000001
											CHANNELS 3 Zrotation Yrotation Xrotation
											JOINT LeftHandPinky4
											{
												OFFSET 1.549668 0.000000 0.000001
												CHANNELS 3 Zrotation Yrotation Xrotation
												JOINT LeftHandPinkyEnd
												{
													OFFSET 1.944895 -0.157802 0.057219
													CHANNELS 3 Zrotation Yrotation Xrotation
													End Site
													{
														OFFSET 0.000000 0.000000 0.000000
													}
												}
											}
										}
									}
								}
							}
						}
					}
				}
				JOINT RightShoulder
				{
					OFFSET -1.380118 23.180307 5.214158
					CHANNELS 3 Zrotation Yrotation Xrotation
					JOINT RightArm
					{
						OFFSET -15.037197 0.000012 -5.545604
						CHANNELS 3 Zrotation Yrotation Xrotation
						JOINT RightForeArm
						{
							OFFSET -28.736639 0.000003 -0.002597
							CHANNELS 3 Zrotation Yrotation Xrotation
							JOINT RightHand
							{
								OFFSET -27.133617 0.000000 0.002613
								CHANNELS 3 Zrotation Yrotation Xrotation
								JOINT RightHandThumb1
								{
									OFFSET -2.274036 -1.383990 3.163127
									CHANNELS 3 Zrotation Yrotation Xrotation
									JOINT RightHandThumb2
									{
										OFFSET -4.011428 -1.827468 1.640914
										CHANNELS 3 Zrotation Yrotation Xrotation
										JOINT RightHandThumb3
										{
											OFFSET -2.794934 -0.000003 -0.000003
											CHANNELS 3 Zrotation Yrotation Xrotation
											JOINT RightHandThumbEnd
											{
												OFFSET -3.183855 0.000003 -0.000000
												CHANNELS 3 Zrotation Yrotation Xrotation
												End Site
												{
													OFFSET 0.000000 0.000000 0.000000
												}
											}
										}
									}
								}
								JOINT RightHandIndex1
								{
									OFFSET -3.253270 -0.520060 2.282866
									CHANNELS 3 Zrotation Yrotation Xrotation
									JOINT RightHandIndex2
									{
										OFFSET -6.341918 0.012473 0.178265
										CHANNELS 3 Zrotation Yrotation Xrotation
										JOINT RightHandIndex3
										{
											OFFSET -3.654875 -0.000008 -0.000001
											CHANNELS 3 Zrotation Yrotation Xrotation
											JOINT RightHandIndex4
											{
												OFFSET -2.327586 0.000000 0.000000
												CHANNELS 3 Zrotation Yrotation Xrotation
												JOINT RightHandIndexEnd
												{
													OFFSET -2.761789 -0.180657 -0.113078
													CHANNELS 3 Zrotation Yrotation Xrotation
													End Site
													{
														OFFSET 0.000000 0.000000 0.000000
													}
												}
											}
										}
									}
								}
								JOINT RightHandMiddle1
								{
									OFFSET -3.168106 0.246593 1.001031
									CHANNELS 3 Zrotation Yrotation Xrotation
									JOINT RightHandMiddle2
									{
										OFFSET -6.180830 -0.258836 -1.000896
										CHANNELS 3 Zrotation Yrotation Xrotation
										JOINT RightHandMiddle3
										{
											OFFSET -4.348905 -0.000000 -0.000000
											CHANNELS 3 Zrotation Yrotation Xrotation
											JOINT RightHandMiddle4
											{
												OFFSET -3.000242 -0.000004 -0.000002
												CHANNELS 3 Zrotation Yrotation Xrotation
												JOINT RightHandMiddleEnd
												{
													OFFSET -2.302518 -0.294372 -0.031706
													CHANNELS 3 Zrotation Yrotation Xrotation
													End Site
													{
														OFFSET 0.000000 0.000000 0.000000
													}
												}
											}
										}
									}
								}
								JOINT RightHandRing1
								{
									OFFSET -2.885694 -0.067953 -0.308858
									CHANNELS 3 Zrotation Yrotation Xrotation
									JOINT RightHandRing2
									{
										OFFSET -5.854197 -0.486132 -1.373732
										CHANNELS 3 Zrotation Yrotation Xrotation
										JOINT RightHandRing3
										{
											OFFSET -4.338814 -0.000004 -0.000000
											CHANNELS 3 Zrotation Yrotation Xrotation
											JOINT RightHandRing4
											{
												OFFSET -2.654906 -0.000004 0.000003
												CHANNELS 3 Zrotation Yrotation Xrotation
												JOINT RightHandRingEnd
												{
													OFFSET -1.933570 0.077524 -0.000052
													CHANNELS 3 Zrotation Yrotation Xrotation
													End Site
													{
														OFFSET 0.000000 0.000000 0.000000
													}
												}
											}
										}
									}
								}
								JOINT RightHandPinky1
								{
									OFFSET -2.866430 -0.342798 -1.584145
									CHANNELS 3 Zrotation Yrotation Xrotation
									JOINT RightHandPinky2
									{
										OFFSET -5.091370 -1.332054 -1.772385
										CHANNELS 3 Zrotation Yrotation Xrotation
										JOINT RightHandPinky3
										{
											OFFSET -3.062667 -0.000007 0.000000
											CHANNELS 3 Zrotation Yrotation Xrotation
											JOINT RightHandPinky4
											{
												OFFSET -1.546526 0.000005 -0.000002
												CHANNELS 3 Zrotation Yrotation Xrotation
												JOINT RightHandPinkyEnd
												{
													OFFSET -1.945122 -0.157722 0.057211
													CHANNELS 3 Zrotation Yrotation Xrotation
													End Site
													{
														OFFSET 0.000000 0.000000 0.000000
													}
												}
											}
										}
									}
								}
							}
						}
					}
				}
			}
		}
	}
	JOINT LeftLeg
	{
		OFFSET 10.043214 -8.434526 2.595655
		CHANNELS 3 Zrotation Yrotation Xrotation
		JOINT LeftShin
		{
			OFFSET -0.000002 -43.221752 -0.802913
			CHANNELS 3 Zrotation Yrotation Xrotation
			JOINT LeftFoot
			{
				OFFSET 0.000001 -42.155094 -3.481523
				CHANNELS 3 Zrotation Yrotation Xrotation
				JOINT LeftToeBase
				{
					OFFSET 0.000000 -5.059475 13.231529
					CHANNELS 3 Zrotation Yrotation Xrotation
					JOINT LeftToeEnd
					{
						OFFSET -0.009606 -1.647616 6.513017
						CHANNELS 3 Zrotation Yrotation Xrotation
						End Site
						{
							OFFSET 0.000000 0.000000 0.000000
						}
					}
				}
			}
		}
	}
	JOINT RightLeg
	{
		OFFSET -10.047277 -8.295259 2.620317
		CHANNELS 3 Zrotation Yrotation Xrotation
		JOINT RightShin
		{
			OFFSET 0.000001 -43.362209 -0.805556
			CHANNELS 3 Zrotation Yrotation Xrotation
			JOINT RightFoot
			{
				OFFSET 0.000002 -42.117393 -3.478398
				CHANNELS 3 Zrotation Yrotation Xrotation
				JOINT RightToeBase
				{
					OFFSET -0.000001 -5.079609 13.284196
					CHANNELS 3 Zrotation Yrotation Xrotation
					JOINT RightToeEnd
					{
						OFFSET 0.009532 -1.634383 6.460591
						CHANNELS 3 Zrotation Yrotation Xrotation
						End Site
						{
							OFFSET 0.000000 0.000000 0.000000
						}
					}
				}
			}
		}
	}
}
MOTION
Frames: 4
Frame Time: 0.033333
5.671948 99.909508 -6.504940 0.783596 13.185340 1.952231 1.963105 0.583772 -0.162213 0.050837 2.804065 -5.133438 -0.491333 0.713274 6.933494 0.840420 2.106302 9.257029 -2.858807 -8.426485 -3.496268 -1.163462 -10.814775 -10.314827 0.000077 -0.000023 0.000006 0.006369 -0.068137 0.052714 0.660566 -3.802496 -10.658067 -0.655056 3.664581 -10.602646 -17.477871 3.068398 14.699147 -31.465881 -6.969345 11.773891 5.891944 -73.753311 -4.039087 11.840186 7.505140 -2.264559 -5.882102 9.861278 0.702591 -10.936858 -0.360574 7.156196 -0.000000 8.774814 -0.000001 -14.824008 18.423512 7.000813 -1.844030 2.498504 -2.507276 -10.163589 4.678940 4.621106 -20.975998 -0.000002 0.000001 -21.226254 2.451691 -3.593995 0.000001 -0.000005 -0.000000 -1.362680 2.240796 -0.746322 -21.334890 0.584912 3.008320 -13.821198 -0.000002 0.000001 -23.887135 -0.249076 -0.839482 -59.466553 2.724818 -0.916828 -0.294024 1.679687 0.833256 -14.218194 0.093217 1.300577 -34.212002 -0.287564 0.967164 -20.033176 0.964533 1.212838 -0.000000 0.000000 0.000000 -3.440385 0.788235 0.501655 -15.928169 -3.167305 2.999703 -6.338817 0.000001 0.000000 -18.123415 3.648178 -4.905663 -0.000004 0.000003 -0.000001 7.117861 14.609231 14.963210 21.114132 24.187864 7.241634 -0.941990 83.101379 -0.684783 -12.948403 2.328509 17.371367 2.243540 -5.255034 -3.180156 14.282878 -0.826595 6.952495 -0.000002 -12.690592 0.000000 16.360550 -18.036583 2.510550 1.665665 -1.955917 -2.878298 4.727794 -4.170584 4.993918 11.020513 0.000004 -0.000002 12.109033 -3.735712 -2.866780 0.000000 -0.000001 0.000000 1.291985 -1.928547 -1.498089 14.800113 0.567466 3.865602 14.242554 -1.341736 -6.660649 19.631939 0.143927 -0.648246 50.338089 -1.230147 -6.361260 0.353029 -1.511149 -0.031941 20.222771 3.684305 2.316627 18.787245 0.000007 -0.000001 10.751611 -0.479868 1.397903 -0.000000 0.000000 0.000001 3.273804 0.305946 -0.580111 21.486794 11.830362 2.266130 8.162916 0.000001 0.000002 18.399054 -3.798979 -4.940567 0.000002 0.000000 0.000000 6.075791 12.007622 -8.555006 -0.069783 -0.297260 7.004508 -9.291118 1.960291 1.084509 1.607088 -2.050787 -0.216824 -0.000000 0.000001 0.000002 -5.351917 -34.421329 -5.508303 -0.070864 -0.264075 13.233923 8.708033 -22.960333 -7.456363 -1.457223 0.850480 0.185128 0.000000 -0.000001 -0.000001 
6.742362 99.934380 -6.366946 1.106260 13.714432 1.933586 1.467277 0.636559 -0.338835 -0.021604 2.902831 -5.189666 -0.788260 0.881085 6.952588 1.311733 1.830693 9.522195 -2.949377 -8.615339 -3.476829 -0.971297 -11.188279 -9.934877 0.000077 -0.000023 0.000006 0.004946 -0.046731 0.053711 0.662656 -3.776757 -10.648459 -0.655655 3.686353 -10.596742 -17.501623 3.196330 14.776118 -30.367483 -7.026122 12.527435 5.993766 -73.935432 -4.099573 11.018217 8.310086 -1.720436 -5.882100 9.861275 0.702590 -10.936859 -0.360578 7.156199 0.000002 8.774813 -0.000001 -14.905880 18.466341 7.032503 -1.844029 2.498504 -2.507274 -10.163589 4.678939 4.621107 -20.975994 -0.000006 0.000004 -21.226254 2.451693 -3.593993 0.000001 -0.000006 -0.000001 -1.362681 2.240798 -0.746322 -21.334890 0.584908 3.008321 -13.821197 -0.000004 0.000002 -23.887129 -0.249079 -0.839479 -59.611885 2.718971 -0.908344 -0.294024 1.679687 0.833256 -14.218192 0.093212 1.300579 -34.211998 -0.287565 0.967174 -20.033176 0.964536 1.212845 0.000001 -0.000000 0.000001 -3.440386 0.788233 0.501656 -15.928165 -3.167308 2.999704 -6.338817 0.000000 0.000001 -18.123411 3.648173 -4.905660 -0.000004 0.000001 -0.000001 7.407388 14.050828 15.186545 22.580896 22.573324 9.220733 0.491253 82.393562 0.666576 -13.411388 1.876914 17.859653 2.243539 -5.255033 -3.180155 14.282877 -0.826593 6.952497 -0.000004 -12.690592 0.000000 16.302050 -18.093229 2.548255 1.665665 -1.955922 -2.878297 4.727793 -4.170582 4.993919 11.020511 0.000007 -0.000001 12.109030 -3.735711 -2.866778 -0.000001 -0.000002 -0.000003 1.291984 -1.928549 -1.498088 14.800114 0.567470 3.865604 14.242553 -1.341736 -6.660647 19.631939 0.143926 -0.648241 50.354446 -1.182763 -6.352916 0.353028 -1.511149 -0.031939 20.222771 3.684309 2.316629 18.787243 0.000006 0.000002 10.751610 -0.479869 1.397906 -0.000000 -0.000000 -0.000001 3.273804 0.305946 -0.580111 21.486794 11.830363 2.266132 8.162916 0.000002 0.000001 18.399050 -3.798980 -4.940565 0.000004 -0.000000 -0.000002 5.107298 11.416471 -8.517242 -0.075186 -0.269467 7.461257 -8.867612 1.789219 0.432619 1.601836 -2.047799 -0.265512 -0.000000 0.000000 0.000002 -6.675375 -34.548073 -4.654880 -0.052515 -0.246630 12.578288 9.070056 -23.302938 -6.953986 -1.454653 0.899433 0.069738 -0.000000 0.000001 -0.000001 
7.813259 99.966553 -6.233301 1.445072 13.996046 1.894076 0.977961 0.662265 -0.523656 -0.097006 3.054043 -5.264073 -1.129229 1.003326 7.012793 1.684959 1.586545 9.939557 -3.009463 -8.721699 -3.475214 -0.671145 -11.397710 -9.546854 0.000077 -0.000023 0.000006 0.007101 -0.028244 0.054359 0.666080 -3.759408 -10.657630 -0.655261 3.704440 -10.600638 -17.651293 3.460328 14.858543 -29.384750 -6.882177 13.423130 5.836486 -73.720856 -3.943849 10.142390 8.959902 -1.439428 -5.882100 9.861278 0.702591 -10.936857 -0.360574 7.156199 0.000002 8.774811 -0.000001 -15.025591 18.516417 7.027002 -1.844031 2.498503 -2.507276 -10.163589 4.678938 4.621105 -20.975996 -0.000004 0.000005 -21.226248 2.451693 -3.593990 0.000000 -0.000007 -0.000001 -1.362681 2.240797 -0.746323 -21.334887 0.584902 3.008322 -13.821197 -0.000004 0.000003 -23.887129 -0.249078 -0.839480 -59.770683 2.660691 -0.889937 -0.294023 1.679686 0.833257 -14.218192 0.093210 1.300581 -34.211998 -0.287565 0.967174 -20.033176 0.964536 1.212844 0.000001 0.000000 0.000000 -3.440387 0.788231 0.501655 -15.928165 -3.167308 2.999706 -6.338817 -0.000001 0.000001 -18.123411 3.648175 -4.905658 -0.000004 -0.000000 -0.000001 7.767930 13.420882 15.558839 24.542982 20.904173 11.859110 1.336790 80.634026 1.381152 -13.932466 1.403874 18.260229 2.243540 -5.255034 -3.180156 14.282877 -0.826590 6.952496 -0.000003 -12.690590 -0.000000 16.215874 -18.197659 2.617208 1.665665 -1.955921 -2.878296 4.727793 -4.170584 4.993919 11.020513 0.000003 0.000001 12.109029 -3.735712 -2.866778 0.000001 0.000000 -0.000002 1.291984 -1.928547 -1.498087 14.800113 0.567470 3.865604 14.242553 -1.341733 -6.660647 19.631939 0.143926 -0.648243 50.331242 -1.127312 -6.413586 0.353028 -1.511148 -0.031940 20.222767 3.684309 2.316628 18.787245 0.000004 0.000002 10.751611 -0.479869 1.397905 0.000000 -0.000000 0.000001 3.273804 0.305948 -0.580111 21.486792 11.830365 2.266133 8.162916 0.000001 0.000002 18.399055 -3.798980 -4.940567 0.000004 -0.000001 -0.000000 4.137052 10.907208 -8.268007 -0.072203 -0.232775 7.707135 -8.419604 1.845876 -0.125406 1.599947 -2.025758 -0.307938 0.000000 0.000001 0.000002 -8.042122 -34.644550 -3.680253 -0.032964 -0.225371 11.719551 9.396208 -23.372463 -6.227416 -1.452917 0.908648 -0.009870 0.000000 0.000000 -0.000001 
8.922873 99.977264 -6.058804 1.768336 13.914839 1.830428 0.534653 0.743348 -0.696111 -0.178299 3.168985 -5.360040 -1.494535 1.114467 7.103228 1.936193 1.406500 10.478974 -3.000151 -8.746107 -3.480785 -0.310306 -11.481684 -9.144498 0.000077 -0.000023 0.000006 0.010766 -0.015383 0.052560 0.673310 -3.748866 -10.676050 -0.658503 3.720593 -10.615106 -17.940289 3.787377 14.963095 -28.590324 -6.500824 14.330653 5.443440 -73.074417 -3.608380 9.225380 9.490608 -1.244604 -5.882101 9.861281 0.702589 -10.936859 -0.360577 7.156196 0.000001 8.774813 -0.000002 -15.112189 18.541285 6.997217 -1.844032 2.498502 -2.507276 -10.163591 4.678940 4.621100 -20.975998 -0.000004 0.000001 -21.226254 2.451692 -3.593995 0.000001 -0.000007 -0.000000 -1.362680 2.240798 -0.746323 -21.334888 0.584908 3.008319 -13.821197 -0.000003 -0.000000 -23.887131 -0.249080 -0.839483 -59.873013 2.601990 -0.881511 -0.294025 1.679686 0.833255 -14.218194 0.093215 1.300577 -34.212006 -0.287565 0.967167 -20.033180 0.964533 1.212840 0.000000 0.000000 0.000000 -3.440383 0.788232 0.501655 -15.928167 -3.167306 2.999701 -6.338818 -0.000001 -0.000002 -18.123415 3.648178 -4.905663 -0.000004 0.000001 -0.000002 8.099521 12.764825 16.003057 26.981194 19.364559 14.876877 2.052829 77.692436 1.908833 -14.593503 0.849201 18.482925 2.243540 -5.255032 -3.180156 14.282877 -0.826594 6.952495 -0.000002 -12.690588 -0.000000 16.109383 -18.343557 2.732272 1.665665 -1.955921 -2.878296 4.727791 -4.170582 4.993918 11.020513 0.000004 -0.000001 12.109033 -3.735708 -2.866782 0.000003 0.000001 0.000000 1.291984 -1.928547 -1.498088 14.800109 0.567468 3.865602 14.242553 -1.341734 -6.660650 19.631939 0.143927 -0.648247 50.352428 -1.035144 -6.442933 0.353029 -1.511151 -0.031941 20.222769 3.684308 2.316625 18.787245 0.000007 0.000000 10.751608 -0.479867 1.397903 0.000002 -0.000000 -0.000000 3.273805 0.305945 -0.580111 21.486788 11.830363 2.266130 8.162916 0.000003 0.000000 18.399054 -3.798978 -4.940567 0.000003 0.000001 -0.000001 3.207379 10.546463 -7.989882 -0.067274 -0.222555 8.086063 -7.946020 2.139984 -0.799536 1.598928 -2.034277 -0.344866 0.000000 -0.000000 0.000002 -9.367442 -34.627254 -2.743929 -0.011016 -0.198699 10.838661 9.660462 -23.284378 -5.475750 -1.451483 0.927783 -0.075066 -0.000000 0.000001 -0.000001 
